<svg width="40" height="35" viewBox="0 0 40 35" fill="none" xmlns="http://www.w3.org/2000/svg">
<path fill-rule="evenodd" clip-rule="evenodd" d="M32.7654 19.1959V26.94L19.9671 30.7671V4.25543L23.465 5.30216C23.9506 4.14094 24.6584 3.09421 25.5226 2.19468L18.6996 0.158467C18.6667 0.150289 18.6337 0.142112 18.6008 0.133934C18.5679 0.125756 18.535 0.117579 18.5021 0.109401C18.2881 0.0685134 18.0741 0.0685134 17.8601 0.109401C17.8272 0.117579 17.7942 0.125756 17.7613 0.133934C17.7284 0.142112 17.6955 0.142112 17.6626 0.158467L13.9918 1.25426L10.3539 2.34188V11.4517L6.30453 12.2122V3.54398L2.76543 4.59889V4.59889L1.27572 5.04048C0.518518 5.26945 0 5.95636 0 6.74141V28.2484C0 29.0335 0.518518 29.7286 1.27572 29.9494L17.6543 34.8477C17.8189 34.8968 18 34.9213 18.1728 34.9213C18.3457 34.9213 18.5185 34.8968 18.6914 34.8477L35.07 29.9494C35.8272 29.7204 36.3457 29.0335 36.3457 28.2484V18.5416C35.2428 18.9587 34.0494 19.1959 32.7984 19.1959C32.7819 19.1959 32.7737 19.1959 32.7654 19.1959Z" fill="white"/>
<path fill-rule="evenodd" clip-rule="evenodd" d="M32.7983 1.99023C28.8148 1.99023 25.5967 5.19584 25.5967 9.14561C25.5967 13.1036 28.823 16.301 32.7983 16.301C36.7736 16.301 40 13.0954 40 9.14561C40 5.19584 36.7736 1.99023 32.7983 1.99023Z" fill="#15C46B"/>
<path fill-rule="evenodd" clip-rule="evenodd" d="M33.251 10.7157L31.8683 12.0813L30.4938 10.7075L29.1687 9.38274L30.5514 8.01708L31.8765 9.34185L35.0535 6.20166L36.428 7.57549L33.251 10.7157Z" fill="white"/>
</svg>
