<svg width="208" height="48" viewBox="0 0 208 48" fill="none" xmlns="http://www.w3.org/2000/svg">
<path d="M58.6833 18.2448H61.0896C62.6481 18.2448 63.7009 19.2975 63.7009 20.7604C63.7009 22.2506 62.7028 23.2487 61.0759 23.2487H58.6833V18.2448ZM58.6833 27.0768H60.5837L63.7009 33.694H70.1814L66.4353 26.2155C68.4997 25.2311 69.6208 22.9889 69.6208 20.6647C69.6208 16.4401 66.9138 13.9655 61.6501 13.9655H52.8864V33.694H58.6833V27.0768ZM84.576 22.401H84.6854L87.6249 33.694H93.0936L98.1796 13.9655H92.1913L89.9217 26.4342H89.8124L86.8729 13.9655H82.3885L79.4491 26.4342H79.3397L77.0702 13.9655H71.0819L76.1678 33.694H81.6366L84.576 22.401Z" fill="#15C46B"/>
<path d="M105.6 27.9792C105.654 31.8073 108.758 34.0358 113.789 34.0358C118.875 34.0358 122.115 31.5338 122.115 27.61C122.115 24.4928 120.365 22.7292 116.469 21.9772L113.912 21.4987C111.848 21.0749 110.973 20.487 110.973 19.4206C110.973 18.2174 112.135 17.4245 113.885 17.4245C115.69 17.4245 117.016 18.2858 117.112 19.7213H121.733C121.678 16.0163 118.766 13.6237 113.83 13.6237C109.264 13.6237 105.983 16.0846 105.983 19.9128C105.983 22.9069 107.856 24.8756 111.492 25.5729L114.076 26.0788C116.319 26.5436 117.153 27.0768 117.153 28.1706C117.153 29.36 115.881 30.235 113.926 30.235C112.067 30.235 110.549 29.3327 110.371 27.9792H105.6ZM131.52 21.8952C133.051 21.8952 134.131 22.9616 134.213 24.5475H128.799C128.922 23.0026 130.03 21.8952 131.52 21.8952ZM134.323 28.9909C133.981 30.0026 132.969 30.6178 131.67 30.6178C129.92 30.6178 128.731 29.3874 128.731 27.61V27.3092H138.78V25.942C138.78 21.3893 135.922 18.4499 131.438 18.4499C126.885 18.4499 124.028 21.5124 124.028 26.3249C124.028 31.1374 126.858 34.0495 131.602 34.0495C135.498 34.0495 138.233 32.067 138.698 28.9909H134.323ZM141.006 33.694H145.86V25.86C145.86 23.7819 146.967 22.6335 149.004 22.6335C149.579 22.6335 150.139 22.7428 150.549 22.9069V18.778C150.221 18.6549 149.811 18.5866 149.319 18.5866C147.569 18.5866 146.366 19.612 145.819 21.6217H145.723V18.8053H141.006V33.694ZM166.68 18.8053H161.608L159.065 29.6335H158.969L156.372 18.8053H151.163L156.153 33.694H161.745L166.68 18.8053ZM168.196 33.694H173.036V18.8053H168.196V33.694ZM170.616 17.6022C172.024 17.6022 173.091 16.5631 173.091 15.2233C173.091 13.8835 172.024 12.8581 170.616 12.8581C169.208 12.8581 168.128 13.8835 168.128 15.2233C168.128 16.5631 169.208 17.6022 170.616 17.6022ZM189.864 24.6842C189.741 20.9518 187.02 18.4499 182.823 18.4499C178.188 18.4499 175.29 21.4167 175.29 26.2428C175.29 31.1237 178.188 34.0495 182.851 34.0495C187.048 34.0495 189.741 31.6979 189.864 27.9108H185.421C185.243 29.4557 184.327 30.3717 182.905 30.3717C181.196 30.3717 180.198 28.8952 180.198 26.2428C180.198 23.6178 181.196 22.1413 182.905 22.1413C184.313 22.1413 185.243 23.1393 185.407 24.6842H189.864ZM199.036 21.8952C200.568 21.8952 201.648 22.9616 201.73 24.5475H196.316C196.439 23.0026 197.546 21.8952 199.036 21.8952ZM201.839 28.9909C201.497 30.0026 200.485 30.6178 199.187 30.6178C197.437 30.6178 196.247 29.3874 196.247 27.61V27.3092H206.296V25.942C206.296 21.3893 203.439 18.4499 198.954 18.4499C194.402 18.4499 191.544 21.5124 191.544 26.3249C191.544 31.1374 194.374 34.0495 199.118 34.0495C203.015 34.0495 205.749 32.067 206.214 28.9909H201.839Z" fill="white"/>
<path fill-rule="evenodd" clip-rule="evenodd" d="M0.471443 34.743L23.7774 44.7486C24.612 45.111 25.7737 45.3078 27.053 45.3078C28.2569 45.3078 29.4524 45.1308 30.4237 44.811L44.6153 40.1466C45.1552 39.9684 45.5511 39.7596 45.8771 39.5454L45.8698 40.9062C45.9524 41.394 45.4028 41.9094 44.2773 42.2808L30.0839 46.947C28.2653 47.5446 25.6303 47.5332 24.2016 46.9188L0.896854 36.9144C0.24488 36.6342 -0.0449544 36.2748 0.00566101 35.9148L0.00325012 34.4688C0.155096 34.56 0.277418 34.6584 0.471443 34.743Z" fill="white" fill-opacity="0.2"/>
<path fill-rule="evenodd" clip-rule="evenodd" d="M1.60008 31.5684L15.7073 26.931C16.1333 27.123 16.5443 27.339 16.9902 27.4944L17.2137 28.1376L4.44659 32.3376C3.77835 32.5554 3.66507 32.9166 4.18869 33.1404L23.6714 41.505C24.1962 41.7288 25.1591 41.7336 25.8262 41.5134L38.8259 37.242C39.4911 37.0218 39.6062 36.663 39.0838 36.4368L25.4411 30.5856L26.0576 28.8102L44.9823 36.9354C46.4122 37.5492 46.0958 38.5302 44.2773 39.1302L30.0839 43.7976C28.2653 44.3952 25.6303 44.3814 24.2017 43.7658L0.896885 33.7602C-0.531192 33.1506 -0.217255 32.1648 1.60008 31.5684ZM33.4347 40.953C34.062 41.2236 35.2226 41.2296 36.0228 40.9638C36.8218 40.7022 36.9609 40.2702 36.3325 39.9984C35.7016 39.7302 34.5447 39.723 33.7445 39.9864C32.9431 40.2486 32.8051 40.6842 33.4347 40.953Z" fill="white"/>
<path fill-rule="evenodd" clip-rule="evenodd" d="M8.8505 13.137C8.8505 5.8938 14.7689 0 22.0412 0C29.3166 0 35.2344 5.8932 35.2344 13.137C35.2344 19.4298 30.7646 24.699 24.8178 25.974L21.746 34.8264L18.6319 25.8126C13.01 24.3096 8.8505 19.2018 8.8505 13.137ZM22.0412 23.4792C27.7807 23.4792 32.4318 18.8502 32.4318 13.1376C32.4318 7.4214 27.7807 2.7924 22.0412 2.7924C16.3048 2.7924 11.6542 7.4214 11.6542 13.1376C11.6542 18.8502 16.3048 23.4792 22.0412 23.4792Z" fill="white"/>
<path fill-rule="evenodd" clip-rule="evenodd" d="M24.2725 9.80641C23.685 9.45481 23.4946 8.69221 23.8501 8.10721L24.6118 6.84961C23.6971 6.71161 22.7486 7.11901 22.2425 7.95721L22.1069 8.17861C21.602 9.01441 21.6833 10.0398 22.2316 10.779L19.7165 14.7294C18.8031 14.5914 17.8558 14.9976 17.3485 15.8358L17.2153 16.0524C16.7091 16.8936 16.7905 17.919 17.3388 18.6588L18.0981 17.4012C18.4548 16.8162 19.2206 16.6254 19.8093 16.9782C20.3992 17.3298 20.5921 18.0924 20.2354 18.6798L19.4749 19.9398C20.3884 20.0736 21.3368 19.668 21.8418 18.8298L21.9762 18.6084C22.4811 17.7708 22.401 16.7454 21.8538 16.0056L24.3665 12.0624C25.2812 12.1998 26.2272 11.787 26.7358 10.9524L26.8678 10.7322C27.3739 9.89521 27.2938 8.86981 26.7442 8.13061L25.9838 9.38341C25.6307 9.97321 24.8642 10.1616 24.2725 9.80641Z" fill="#FFC92D"/>
</svg>
